<svg xmlns="http://www.w3.org/2000/svg" viewBox="0 0 340 90">
    <path d="M0 0h5v90H0zM115 0h5v90h-5z" fill="#2efafa"/>
  <g fill="#2efafa">
    <path d="M46.9 58.9c0-7.6 3-14.4 8-19.3A21.1 21.1 0 1 0 55 78c-5-4.8-8-11.6-8-19.1z"/>
    <path d="M73.9 58.1c-7.6 0-14.4-3-19.3-8A21 21 0 0 0 74 80 21.1 21.1 0 0 0 93 50c-5 5-11.7 8.1-19.2 8.1z"/>
    <path d="M73.9 10a21 21 0 0 0-8.8 2 26.9 26.9 0 0 1 0 38.4A21 21 0 0 0 95 31C95 19.5 85.5 10 73.9 10z"/>
    <path d="M46.1 31.9c7.6 0 14.4 3 19.3 8A21.1 21.1 0 1 0 27 40c4.8-5 11.6-8 19.1-8z"/>
  </g>
  <path d="M140.4 42.1l1.7-2.5c.4-.5 1.1-.7 1.7-.3l3.5 2c1.6.7 3.2 1 5 1a7.3 7.3 0 0 0 4.1-1.2c.5-.3.9-.7 1.1-1.2.3-.5.4-1 .4-1.4 0-.6-.2-1-.6-1.5-.3-.4-.8-.7-1.4-1s-1.3-.5-2.2-.7a40 40 0 0 0-2.5-.5l-2-.4a15.1 15.1 0 0 1-4.9-1.6 8.3 8.3 0 0 1-3.7-3.9c-.4-.8-.6-1.8-.6-3 0-1.7.4-3.2 1-4.3.7-1.1 1.6-2 2.7-2.7 1-.7 2.3-1.1 3.6-1.4s2.6-.4 3.9-.4l3.3.3 2.7.6 2.4 1.2 1.5 1c.6.4.7 1.1.3 1.7l-1.7 2.4c-.4.6-1.1.7-1.7.3l-3-1.5a10.7 10.7 0 0 0-5.7-.6 7 7 0 0 0-1.8.6 5 5 0 0 0-1.3 1c-.4.5-.6 1-.6 1.5s.2 1.1.7 1.5 1 .8 1.6 1l2.2.7 2.4.6 2 .4c.7 0 1.5.3 2.3.5l1.3.5 2.2 1.2c.4.2.8.5 1 .8.7.7 1.3 1.4 1.6 2.4.4.9.6 2 .6 3.3 0 1.6-.3 2.9-.8 4s-1.3 2-2.3 2.8c-1 .8-2.1 1.3-3.5 1.7s-3 .6-4.6.6a20.3 20.3 0 0 1-7.2-1.3 28.8 28.8 0 0 1-4.4-2.5c-.5-.3-.7-1.1-.3-1.7zM204 18.8l-10.1 27.7c-.3.7-1.2.7-1.5 0l-7-15.5c-.2-.7-.7-.7-1 0l-7 15.5c-.3.6-1.2.6-1.4 0l-10-27.7c-.3-.7 0-1.2.8-1.2h3.5c.7 0 1.4.5 1.6 1.2l5 13.8c.2.6.6.6.9 0l6.4-14.5c.3-.6 1.2-.6 1.5 0l6.4 14.5c.2.6.7.6.9 0l5-13.8c.3-.7 1-1.2 1.7-1.2h3.5c.7 0 1 .5.8 1.2zm1.6 27.1l14-27.9c.3-.6 1.3-.6 1.6 0l14 27.9c.3.6 0 1-.7 1H231a2 2 0 0 1-1.8-1l-1.2-2.4c-.3-.7-1.1-1.1-1.8-1.1h-11.4a2 2 0 0 0-1.8 1l-1.1 2.5c-.4.6-1.1 1-1.8 1h-3.7c-.7 0-1-.4-.7-1zm11.8-8.4h6c.7 0 1-.6.7-1.2l-3.2-6.6c-.3-.6-.7-.6-1 0l-3.2 6.6c-.3.7 0 1.2.7 1.2zm29.7-6l-9.6-12.9c-.4-.5-.2-1 .5-1h4.5c.7 0 1.5.4 2 1l6.1 8.6c.4.5 1 .5 1.5 0l6.2-8.6c.4-.6 1.3-1 2-1h4.4c.7 0 .9.5.5 1l-9.6 12.8c-.4.6-.4 1.5 0 2l9.4 12.5c.4.6.2 1-.5 1H260c-.7 0-1.6-.4-2-1l-6-8.2c-.3-.5-1-.5-1.4 0l-6 8.3c-.3.5-1.2 1-1.8 1h-4.5c-.7 0-1-.5-.5-1.1l9.3-12.5c.4-.5.4-1.4 0-2zM274.7 47h-3.2c-.7 0-1.2-.6-1.2-1.3V18.8c0-.6.5-1.2 1.2-1.2h3.2c.7 0 1.2.6 1.2 1.2v27c0 .6-.5 1.2-1.2 1.2zm22.2.6a15.3 15.3 0 1 1 0-30.6 15.3 15.3 0 0 1 0 30.6zm0-25.3a10 10 0 0 0-9.6 10 10 10 0 0 0 9.6 10 10 10 0 0 0 9.7-10 10 10 0 0 0-9.7-10zM316.7 42l1.7-2.5c.3-.5 1.1-.7 1.7-.3l3.5 2c1.6.7 3.2 1 5 1a7.3 7.3 0 0 0 4.1-1.2c.5-.3.9-.7 1.1-1.2.3-.5.4-1 .4-1.4 0-.6-.2-1-.6-1.5-.4-.4-.8-.7-1.4-1s-1.3-.5-2.2-.7a40 40 0 0 0-2.5-.5l-2-.4a15.1 15.1 0 0 1-5-1.6 8.3 8.3 0 0 1-3.7-3.9c-.3-.8-.5-1.8-.5-3 0-1.7.3-3.2 1-4.3.7-1.1 1.6-2 2.7-2.7 1-.7 2.3-1.1 3.6-1.4s2.6-.4 3.9-.4l3.3.3 2.6.6 2.5 1.2 1.5 1c.6.4.7 1.1.3 1.7l-1.7 2.4c-.4.6-1.1.7-1.7.3l-3-1.5a10.7 10.7 0 0 0-5.7-.6 7 7 0 0 0-1.8.6 5 5 0 0 0-1.4 1c-.3.5-.5 1-.5 1.5s.2 1.1.7 1.5 1 .8 1.6 1l2.2.7 2.3.6 2 .4c.7 0 1.6.3 2.4.5l1.3.5 2.2 1.2 1 .8c.7.7 1.2 1.4 1.6 2.4.4.9.6 2 .6 3.3 0 1.6-.3 2.9-.8 4s-1.3 2-2.3 2.8c-1 .8-2.2 1.3-3.5 1.7s-3 .6-4.6.6a20.3 20.3 0 0 1-7.2-1.3 28.8 28.8 0 0 1-4.4-2.5c-.6-.3-.7-1.1-.3-1.7z" fill="#2efafa"/>
  <path d="M155 77l6.8-13.5c.2-.3.6-.3.8 0l6.7 13.5c.2.3 0 .5-.3.5h-1.8a1 1 0 0 1-.8-.5l-.6-1.2a1 1 0 0 0-.9-.5h-5.5a1 1 0 0 0-.8.5L158 77a1 1 0 0 1-.8.5h-1.8c-.3 0-.5-.2-.3-.5zm5.7-4.1h3c.3 0 .4-.3.3-.6l-1.6-3.2c-.1-.3-.3-.3-.5 0l-1.5 3.2c-.1.4 0 .6.3.6zm18.9-9.2a5.4 5.4 0 0 1 2.7 2.6 5.2 5.2 0 0 1 0 4c-.2.6-.6 1-1 1.5-.5.5-1 .8-1.7 1a7 7 0 0 1-2.4.5h-2.6c-.3 0-.6.2-.6.6v3c0 .3-.3.6-.6.6h-1.5a.6.6 0 0 1-.6-.6v-13c0-.4.2-.6.6-.6h5.7c.7 0 1.4.1 2 .4zm-1 6.9c.4-.1.6-.3.8-.5l.4-.8a3 3 0 0 0-.5-2.8l-.9-.6-1-.2h-2.8c-.3 0-.6.3-.6.6v4c0 .2.3.5.6.5h3c.4 0 .8 0 1-.2zm8.3 6.9h-1.5a.6.6 0 0 1-.6-.6v-13c0-.3.3-.6.6-.6h1.5c.4 0 .7.3.7.6v13c0 .3-.3.6-.7.6zm24.6-7.2v1.3a6.4 6.4 0 0 1-2.3 4.4c-.7.6-1.4 1-2.2 1.3a7.7 7.7 0 0 1-5.5-.1 7.5 7.5 0 0 1-4.6-6.8 7.2 7.2 0 0 1 2.2-5.2c.7-.7 1.5-1.2 2.4-1.6s1.8-.6 2.8-.6a7 7 0 0 1 5.8 2.8c.2.3.1.6-.2.8l-1.3.8c-.3.2-.6 0-.9-.1-.3-.5-.7-.8-1.2-1.1a4.2 4.2 0 0 0-4-.2c-.6.2-1 .6-1.5 1l-1 1.6a4.7 4.7 0 0 0 0 3.7 5.1 5.1 0 0 0 2.5 2.5 4.3 4.3 0 0 0 3.2.2c.5-.1.9-.3 1.3-.6l1-1 .4-.7c.1-.3-.1-.5-.4-.5h-4a.6.6 0 0 1-.7-.6v-1.3c0-.3.3-.6.6-.6h7c.3 0 .6.3.6.6zm5-4v2.3c0 .4.3.6.6.6h5.7c.3 0 .6.3.6.6v1.3c0 .3-.3.6-.6.6H217c-.3 0-.6.3-.6.6v2.1c0 .4.3.7.6.7h6.6c.3 0 .6.2.6.6v1.2c0 .3-.3.6-.6.6h-9.3a.6.6 0 0 1-.6-.6v-13c0-.4.3-.6.6-.6h9.3c.3 0 .6.2.6.6V65c0 .3-.3.6-.6.6H217c-.3 0-.6.3-.6.6zm13.3 3.3V77c0 .3-.3.6-.6.6h-1.5a.6.6 0 0 1-.6-.6V63.6c0-.3.4-.4.6-.2l8.6 8c.2.3.4.2.4-.1v-7.4c0-.3.3-.6.6-.6h1.5c.4 0 .6.3.6.6v13.3c0 .3-.4.4-.6.2l-8.6-8c-.2-.2-.4 0-.4.2zm15.5-3.3v2.3c0 .4.2.6.6.6h5.6c.4 0 .6.3.6.6v1.3c0 .3-.2.6-.6.6H246c-.4 0-.6.3-.6.6v2.1c0 .4.2.7.6.7h6.5c.3 0 .6.2.6.6v1.2c0 .3-.3.6-.6.6h-9.3a.6.6 0 0 1-.6-.6v-13c0-.4.3-.6.6-.6h9.3c.3 0 .6.2.6.6V65c0 .3-.3.6-.6.6H246c-.4 0-.6.3-.6.6zM258 77.5h-1.6a.6.6 0 0 1-.6-.6v-13c0-.4.3-.6.6-.6h5.9c.7 0 1.4 0 2 .3.6.3 1.1.6 1.5 1 .5.5.8 1 1 1.6s.4 1.3.4 2c0 1-.3 2-.8 2.8-.4.6-1 1.1-1.6 1.5-.3.1-.4.4-.2.7l2.7 3.7c.2.2.1.6-.2.6h-2c-.3 0-.7-.2-1-.5l-1.2-1.7-1.3-1.8c-.2-.3-.6-.5-1-.5h-1.5c-.3 0-.6.2-.6.6v3.3c0 .3-.2.6-.5.6zm1.1-7H263l.8-.5.5-.8c.2-.3.2-.6.2-1a3.7 3.7 0 0 0-.4-1.6c-.2-.2-.4-.5-.7-.6-.3-.2-.6-.3-1.1-.3H259c-.3 0-.6.3-.6.6V70c0 .3.3.6.6.6zm9.5 6.5l6.8-13.5c.1-.3.6-.3.8 0l6.7 13.5c.2.3 0 .5-.3.5h-1.8a1 1 0 0 1-.8-.5l-.6-1.2a1 1 0 0 0-.9-.5H273a1 1 0 0 0-.8.5l-.6 1.2a1 1 0 0 1-.9.5H269c-.4 0-.5-.2-.4-.5zm5.7-4.1h3c.2 0 .4-.3.2-.6l-1.5-3.2c-.1-.3-.3-.3-.5 0l-1.5 3.2c-.1.4 0 .6.3.6zm20.2-7.2h-2.9c-.3 0-.6.3-.6.6v10.6c0 .3-.3.6-.6.6H289a.6.6 0 0 1-.6-.6V66.3c0-.3-.3-.6-.6-.6h-2.9a.6.6 0 0 1-.6-.6v-1.2c0-.4.3-.6.6-.6h9.7c.3 0 .6.2.6.6V65c0 .3-.3.6-.6.6zm9.1 12a7.4 7.4 0 1 1 0-14.7 7.4 7.4 0 0 1 0 14.8zm0-12.2a4.8 4.8 0 0 0-4.7 4.9c0 2.6 2.1 4.8 4.7 4.8s4.7-2.2 4.7-4.8c0-2.6-2.1-4.9-4.7-4.9zm12 12H314a.6.6 0 0 1-.6-.6v-13c0-.4.3-.6.6-.6h5.9c.7 0 1.4 0 2 .3l1.5 1c.4.5.8 1 1 1.6s.4 1.3.4 2c0 1-.3 2-.8 2.8-.5.6-1 1.1-1.6 1.5-.3.1-.4.4-.2.7l2.7 3.7c.2.2.1.6-.2.6h-2c-.3 0-.8-.2-1-.5l-1.3-1.7-1.2-1.8c-.2-.3-.7-.5-1-.5h-1.5c-.3 0-.6.2-.6.6v3.3c0 .3-.2.6-.6.6zm1.1-7H320.6l.7-.5.5-.8a3.2 3.2 0 0 0-.1-2.6c-.2-.2-.4-.5-.7-.6-.3-.2-.7-.3-1.1-.3h-3.2c-.3 0-.6.3-.6.6V70c0 .3.3.6.6.6z" fill="#f5fa2e"/>
</svg>