<svg xmlns="http://www.w3.org/2000/svg" width="338" height="90" version="1">
  <g fill="none" fill-rule="nonzero">
    <path fill="#2EFAFA" d="M0 0h5v90H0V0zm115 0h5v90h-5V0z"/>
    <g fill="#2EFAFA">
      <path d="M47 59c0-8 3-14 8-19a21 21 0 1 0 0 38c-5-5-8-12-8-19z"/>
      <path d="M74 58c-8 0-14-3-19-8a21 21 0 0 0 19 30 21 21 0 0 0 19-30c-5 5-12 8-19 8z"/>
      <path d="M74 10l-9 2a27 27 0 0 1 0 38 21 21 0 0 0 30-19c0-11-9-21-21-21z"/>
      <path d="M46 32c8 0 15 3 19 8a21 21 0 1 0-38 0c5-5 12-8 19-8z"/>
    </g>
    <path fill="#F5FA2E" d="M153 67h-5l-1 2h-2l5-10h2l4 10h-2l-1-2zm0-2l-2-5-2 5h4zm9-7l2 1 2 1v4l-2 2h-4v3h-2V59h4zm0 6h2v-2-1l-2-1h-2v4h2zm6-6h2v11h-2V59zm14 11l-3-1a5 5 0 0 1-2-4 5 5 0 0 1 2-5l3-1 3 1 1 1-1 1-3-1-2 1-1 1v4l1 1h2l3-1 1 1-1 2h-3zm6-11h2v9h6v2h-8V59zm9 0h2v11h-2V59zm13 9v2h-8V59h8v1h-6v3h5v1h-5v3h6zm11-9v11h-1l-6-7v7h-2V59h2l5 7v-7h2zm5 2h-3v-2h9v2h-4v9h-2v-9zm19 4h1v4l-2 1h-2l-3-1a5 5 0 0 1-2-4v-3l2-2 3-1 3 1 2 1-2 1-3-1-2 1-1 1v4l1 1h5v-3zm12 3v2h-8V59h8v1h-6v3h5v1h-5v3h6zm11-9v11h-1l-6-7v7h-2V59h2l5 7v-7h2zm11 9v2h-8V59h8v1h-6v3h5v1h-5v3h6zm9 2l-2-3h-3v3h-2V59h7l1 1 1 2-1 2-1 2 2 3h-2zm0-7l-1-1-2-1h-2v4h4l1-2zm11 5h-5l-1 2h-2l4-10h2l5 10h-2l-1-2zm-1-2l-2-5-2 5h4zm7-5h-3v-2h8v2h-3v9h-2v-9zm12 9l-3-1a5 5 0 0 1-3-4 5 5 0 0 1 3-5l3-1 3 1a5 5 0 0 1 2 5v3l-2 1-3 1zm0-2h2l1-1v-2-2l-1-1-2-1-2 1-2 1v4l2 1h2zm14 2l-2-3h-3v3h-2V59h7l2 1v4l-2 2 2 3h-2zm0-7v-1l-2-1h-3v4h5v-2z"/>
    <path fill="#2EFAFA" d="M151 50l-7-1-5-2 2-4 5 2 5 1 5-1 1-3-1-2-2-1-4-1-5-2-3-2-2-5 1-4 4-3 7-1 5 1 4 1-2 5a17 17 0 0 0-7-3l-5 1-2 3 1 2 2 1 4 1 5 2 4 2 1 5-1 4-4 3-6 1zm59-29l-10 29h-6l-7-21-7 21h-6l-9-29h5l8 22 7-22h5l7 22 8-22h5zm22 22h-15l-3 7h-5l13-29h5l13 29h-5l-3-7zm-2-4l-6-12-5 12h11zm30 11l-7-11-8 11h-6l10-15-10-14h6l8 11 7-11h6l-10 14 11 15h-7zm10-29h5v29h-5V21zm26 29l-8-1a14 14 0 0 1-7-13 15 15 0 0 1 7-13l8-2 8 2a14 14 0 0 1 8 13l-2 7-6 6-8 1zm0-4l5-2c2 0 3-2 4-3l1-5-1-6-4-3-5-1-5 1-4 3-1 6 1 5 4 3 5 2zm30 4l-6-1-5-2 2-4 4 2 5 1 5-1 2-3-1-2-2-1-4-1-5-2-4-2-1-5 1-4 4-3 6-1 5 1 5 1-2 5a17 17 0 0 0-8-3l-5 1-1 3 1 2 2 1 4 1 5 2 3 2 2 5-1 4-4 3-7 1z"/>
  </g>
</svg>